<?xml version="1.0" encoding="UTF-8"?>
<svg version="1.1" viewBox="0 0 2048 2048" width="1280" height="1280" xmlns="http://www.w3.org/2000/svg">
<path transform="translate(327,128)" d="m0 0h121l6 12 43 108 33 82 6 10 8 7 8 3 6 1h452l9-2 10-6 6-7 9-21 43-108 27-67 6-12h121l17 2 18 5 21 10 14 10 13 11 9 11 8 11 8 15 6 16 4 19 1 13v336l-5 4-17 9-10 6-5-2-21-12-29-14-29-11-24-7-24-5-26-4-26-2h-35l-32 3-32 6-26 7-26 9-23 10-28 14-22 13-19 13-13 10-11 9-12 11-8 7-8 8-7 8-8 9-13 17-9 13-13 21-12 23-11 27-8 24-6 24-6 36-2 29v33l3 34 5 30 6 25 8 27 7 19 11 26 14 28 10 17 16 24 12 16 13 16 9 10 11 12 14 14 8 7 7 7 8 7 15 14 28 24 11 9 12 10 14 11 26 20 18 13 14 10 20 14 26 17 19 12 28 17 23 13 30 16 16 9 23 11 29 14 22 8 21 4h31l17-2 1 1v294l-1 18-4 19-6 16-9 17-11 15-15 15-18 12-17 8-20 6-12 2-17 1h-891l-19-1-17-3-15-5-16-8-11-7-11-9-12-12-11-15-9-17-7-21-3-20v-1558l3-18 5-16 9-19 9-13 11-13 10-9 16-11 16-8 15-5 14-3z" fill="#9B00FD"/>
<path transform="translate(1111,612)" d="m0 0h34l29 3 26 5 24 7 22 8 29 14 17 10 16 11 18 14h4l12-10 19-13 20-12 22-11 23-9 23-7 22-5 30-4 18-1h18l29 2 26 4 25 6 27 9 29 13 21 12 19 13 13 10 10 9 8 7 18 18 9 11 11 14 10 15 9 15 10 19 10 24 7 21 6 24 5 33 1 25-1 22-4 31-6 28-6 21-10 28-11 24-13 25-15 24-10 14-15 20-12 14-9 10-7 8-7 7-3 4h-2l-2 4-7 7-8 7-7 7-8 7-10 9-11 9-16 13-16 12-18 13-15 11-12 8-29 19-24 15-32 19-21 12-27 15-24 13-28 15-32 17-14 5-8 2h-25l-13-3-16-7-16-8-23-11-22-12-30-16-50-30-48-32-18-13-17-12-14-11-13-10-14-11-26-22-11-9-12-11-8-7-16-15-13-12-21-21-7-8-10-12-14-19-11-17-12-21-14-29-10-26-8-27-6-28-4-30-1-16v-28l2-24 4-24 6-25 7-21 9-21 12-23 14-21 9-12 8-9 7-8 17-17 8-7 15-12 21-14 21-12 16-8 17-8 24-9 26-7 29-5z" fill="#9B00FD"/>
<path transform="translate(1519,612)" d="m0 0h18l29 2 26 4 25 6 27 9 29 13 21 12 19 13 13 10 10 9 8 7 18 18 9 11 11 14 10 15 9 15 10 19 10 24 7 21 6 24 5 33 1 25-1 22-4 31-6 28-6 21-10 28-11 24-13 25-15 24-10 14-15 20-12 14-9 10-7 8-7 7-3 4h-2l-2 4-7 7-8 7-7 7-8 7-10 9-11 9-16 13-16 12-18 13-15 11-12 8-29 19-24 15-32 19-21 12-27 15-24 13-28 15-32 17-14 5-8 2h-25l-13-3-16-7-16-8-23-11-22-12-8-4 3-2 6 2 8 3v2h5l4 3 7 3 13 6 3 1v2l5 1 4 1v2l5 1 7 3 5 1-1-4-5-2-6-4-10-6-3-5 9 1 5 2 8 2 6 2h14l13 2 2 2 9-4 14-7v-3l-2-1v-7l-4-7-4-16-12-10-7-5-3-6 1-5 13-9 6-8 5-2 12-13h2v-2l8-7 9-9 9-14 10-21 12-20 6-7 2-6v-9l-5-8-18-8-7-6-2-5-2-9-4-8-3-10-5-7-2-15v-21l4-16 3-7v-13l-4-5-4-13-2-15-1-42-1-21-1-6v-17l3-25 3-7 7-8 10-13 7-11 4-8 6-9 8-13 4-9 5-17 7-22 2-11v-16l-6-1 1-8 5-17 5-11-4 1 2-5 3-7v-10l2-8 1-7-3-6-6-6h-9l-27 4h-20l-10-3-1-2-8-1-3-3-7-3-6-2-5-2-6-5v-2l6-2h4l12-10 19-13 20-12 22-11 23-9 23-7 22-5 30-4z" fill="#CC00FA"/>
<path transform="translate(518,128)" d="m0 0h532l-3 9-43 108-17 42-7 1h-397l-4-6-40-100-19-47z" fill="#9B00FD"/>
<path transform="translate(1218,134)" d="m0 0 9 1h8v2l14-1 12-2h2v2l7 2v2h7l7 2h3v2h8l11 7 11 9 7 6 9 11 8 11 8 15 4 11-1 4-3 3-1 4 1 2v10l-2 4-2-1-3-16-6-10-4-9-7-10-6-9-6-7-7-6-5-5-8-7-5-4-8-4-16-4-7-3-14-3h-17l-24-2-33-1-1-3 30-1 10-1z" fill="#CC00FA"/>
<path transform="translate(1279,1497)" d="m0 0 7 1 5 1 4-1 3 2 13 2h14l1-1h26l5 4 1 7h-2l-2-3h-2l-2 3-4 2-9 2-1 8 3 9-3 10-3 2h-9l-3-5v-2l-3-1-1-5 1-6h2v-2h3l-2-5-9-2-16-4-14-7-3-4v-2l-2-1z" fill="#CC00FA"/>
<path transform="translate(1396,1390)" d="m0 0h5l-2 4-5 6-11 7-8 5-8 4-5 1-9 4-5 2v2l-6 2h-9l1-2-12-4-1-4 2-3h3l1-2 6-1 1 1 13-1 12-3 5-4 19-10z" fill="#9B00FE"/>
<path transform="translate(1269,559)" d="m0 0h8l13 5 9 4 7 3 4 3 7 3 5-1 2-2 5 1-1 4-5 4-2 4-6-1-14-7-5-2v-2l-6-1-11-6-7-3-4-3z" fill="#CD01FA"/>
<path transform="translate(1301,182)" d="m0 0 2 3 7 3 5 5 4 5 5 10 1 13-3 1v2h-5l-3-5-1-9v-2h-2v-2l-4-2-6-10v-6h-2l-1 2v-3l2-1-2-1v-2z" fill="#CD01FA"/>
<path transform="translate(1251,564)" d="m0 0 5 3 7 2 19 7 19 10 13 7v2l9 1 5 5 4 3-6 2-13-8-27-14-23-10-16-6 1-3z" fill="#CD01FA"/>
<path transform="translate(1357,1496)" d="m0 0 3 1v88h-1l-1-74-3-7-5-2-17-1 1-2z" fill="#B300FC"/>
<path transform="translate(1325,501)" d="m0 0 2 2-1 4 4-2 1-3 4-1 3 11-2 9-4 1-2-6h-2l-2-4-2-2-1-7z" fill="#CC00FA"/>
<path transform="translate(1346,1797)" d="m0 0 2 2 4 15v2l4-4 2-1-1 9h-2l-1-2-1 1h-5l-4-8-1-1v-8z" fill="#CD01FA"/>
<path transform="translate(1256,1488)" d="m0 0h7l8 3v2l5 2 2 3-3 1h-8l-10-7z" fill="#CD01FA"/>
<path transform="translate(1519,612)" d="m0 0h18l19 1 2 2-36 1-16-2v-1z" fill="#A500FD"/>
<path transform="translate(1338,1823)" d="m0 0h6v6l-6 10-2-2 1-4-2-4 1-5z" fill="#CD01FA"/>
<path transform="translate(1348,1426)" d="m0 0h5l3 2-1 3-11 3h-8v-2l9-4z" fill="#A000FD"/>
<path transform="translate(1347,671)" d="m0 0 1 3-10 10h-2v2l-7 1 2-4 14-11z" fill="#A300FD"/>
<path transform="translate(1326,1814)" d="m0 0 1 2h2l-1 7-6 6h-3l1-6 4-8z" fill="#CD01FA"/>
<path transform="translate(1346,258)" d="m0 0h2l1 2v10l-2 5-4-3-1-6 1-4h2z" fill="#CD01FA"/>
<path transform="translate(1369,1420)" d="m0 0h5v2l-10 5h-4l1-4z" fill="#A200FD"/>
<path transform="translate(1332,1801)" d="m0 0 3 1 1 5-3 2-4-1 2-5z" fill="#CD01FA"/>
</svg>
